<svg x="0" y="0" width="700" height="350" viewBox="0 0 700 350" xmlns="http://www.w3.org/2000/svg" xmlns:xlink="http://www.w3.org/1999/xlink" xmlns:fi="http://pattern.flaticon.com/"><rect x="0px" y="0px" width="100%" height="100%" opacity="1" fill="#ffffff"/><defs><g transform="matrix(0.12570028007030487 0 0 0.12570028007030487 102.87114715576172 176.87115478515625)" id="L1_0"><path d="M296,48c-39.704,0-72,32.304-72,72c0,4.416,3.576,8,8,8s8-3.584,8-8c0-30.88,25.128-56,56-56s56,25.12,56,56    s-25.128,56-56,56H8c-4.416,0-8,3.584-8,8s3.584,8,8,8h288c39.704,0,72-32.304,72-72S335.704,48,296,48z"/><path d="M144,32c-30.88,0-56,25.12-56,56c0,4.416,3.584,8,8,8s8-3.584,8-8c0-22.056,17.944-40,40-40c22.056,0,40,17.944,40,40    c0,22.056-17.944,40-40,40H8c-4.416,0-8,3.584-8,8s3.584,8,8,8h136c30.88,0,56-25.12,56-56S174.88,32,144,32z"/><path d="M280,224H8c-4.416,0-8,3.584-8,8c0,4.416,3.584,8,8,8h272c22.056,0,40,17.944,40,40c0,22.056-17.944,40-40,40    c-22.056,0-40-17.944-40-40c0-4.416-3.576-8-8-8s-8,3.584-8,8c0,30.88,25.128,56,56,56s56-25.12,56-56S310.872,224,280,224z"/></g><g transform="matrix(0.09050390124320984 0.008484740741550922 -0.008484740741550922 0.09050390124320984 163.15179443359375 172.61924743652344)" id="L1_3"><path d="m106.921875 283.015625c2.632813 0 5.210937-1.070313 7.070313-2.929687 1.859374-1.859376 2.929687-4.441407 2.929687-7.070313s-1.070313-5.210937-2.929687-7.070313c-1.859376-1.859374-4.4375-2.929687-7.070313-2.929687-2.640625 0-5.210937 1.070313-7.070313 2.929687-1.871093 1.859376-2.929687 4.429688-2.929687 7.070313 0 2.628906 1.058594 5.210937 2.929687 7.070313 1.859376 1.859374 4.429688 2.929687 7.070313 2.929687zm0 0"/><path d="m204.140625 109.472656c-2.199219-2.199218-5.296875-3.25-8.378906-2.84375-3.085938.40625-5.804688 2.226563-7.355469 4.921875l-70.152344 121.761719c-2.757812 4.785156-1.113281 10.898438 3.671875 13.65625 4.785157 2.757812 10.898438 1.109375 13.65625-3.671875l34.171875-59.3125 155.898438 155.898437-194.808594 112.238282-73.328125-73.328125 37.773437-65.558594c2.757813-4.785156 1.113282-10.902344-3.671874-13.660156-4.789063-2.757813-10.902344-1.109375-13.660157 3.675781l-40.9375 71.054688-16.65625 16.660156c-13.132812 13.128906-20.363281 30.585937-20.363281 49.15625 0 18.566406 7.230469 36.023437 20.363281 49.15625 13.550781 13.550781 31.351563 20.328125 49.152344 20.328125 17.804687 0 35.605469-6.777344 49.15625-20.328125l10.519531-10.519532 17.253906 17.25c10.660157 10.664063 24.667969 15.992188 38.671876 15.992188 14.007812 0 28.011718-5.328125 38.675781-15.992188 20.691406-20.691406 21.304687-53.976562 1.839843-75.417968l172.453126-99.355469c2.695312-1.554687 4.511718-4.273437 4.921874-7.355469.40625-3.085937-.644531-6.183594-2.84375-8.382812zm-169.636719 365.660156c-9.351562-9.355468-14.503906-21.789062-14.503906-35.015624 0-13.226563 5.152344-25.660157 14.503906-35.011719l10.519532-10.519531 70.027343 70.027343-10.519531 10.519531c-19.304688 19.308594-50.722656 19.308594-70.027344 0zm175.148438-42.332031c13.527344 13.527344 13.527344 35.535157 0 49.0625-13.527344 13.527344-35.539063 13.53125-49.066406 0l-15.097657-15.097656 62.257813-35.867187zm133.933594-103.25c-.074219-.078125-.136719-.15625-.210938-.234375l-163.277344-163.277344 19.125-33.199218 177.574219 177.574218zm0 0"/><path d="m253.398438 113.980469c.890624.246093 1.785156.363281 2.664062.363281 4.386719 0 8.414062-2.910156 9.632812-7.34375l12.285157-44.554688 8.527343 8.527344c2.464844 2.464844 6.035157 3.46875 9.425782 2.648438 3.386718-.820313 6.101562-3.34375 7.167968-6.664063l17.300782-53.898437c1.6875-5.257813-1.207032-10.890625-6.464844-12.578125s-10.890625 1.207031-12.578125 6.464843l-12.292969 38.300782-9.089844-9.089844c-2.515624-2.515625-6.179687-3.503906-9.625-2.597656-3.441406.910156-6.140624 3.578125-7.085937 7.011718l-16.851563 61.109376c-1.464843 5.328124 1.660157 10.835937 6.984376 12.300781zm0 0"/><path d="m510.707031 164.050781c-2.660156-4.839843-8.738281-6.605469-13.578125-3.949219l-71.125 39.066407c-2.757812 1.515625-4.640625 4.238281-5.082031 7.355469-.445313 3.113281.601563 6.257812 2.828125 8.480468l19.566406 19.566406-46.976562 11.742188c-5.359375 1.339844-8.617188 6.769531-7.277344 12.128906 1.136719 4.542969 5.214844 7.574219 9.695312 7.574219.800782 0 1.621094-.097656 2.433594-.300781l64.109375-16.027344c3.496094-.871094 6.25-3.558594 7.210938-7.03125.960937-3.472656-.019531-7.191406-2.566407-9.738281l-22.632812-22.632813 59.445312-32.652344c4.839844-2.660156 6.609376-8.738281 3.949219-13.582031zm0 0"/><path d="m460.871094 111.40625c1.859375 1.871094 4.4375 2.933594 7.070312 2.933594 2.628906 0 5.207032-1.0625 7.070313-2.933594 1.859375-1.859375 2.929687-4.429688 2.929687-7.066406 0-2.632813-1.070312-5.210938-2.929687-7.070313-1.863281-1.863281-4.441407-2.933593-7.070313-2.933593-2.632812 0-5.210937 1.070312-7.070312 2.933593-1.863282 1.859375-2.933594 4.4375-2.933594 7.070313 0 2.636718 1.070312 5.207031 2.933594 7.066406zm0 0"/><path d="m440.414062 117.929688c-2.445312-4.953126-8.441406-6.984376-13.394531-4.539063l-37.332031 18.425781c-2.890625 1.425782-4.914062 4.160156-5.4375 7.339844-.523438 3.183594.515625 6.421875 2.792969 8.699219l14.125 14.125-47.03125 23.167969c-4.953125 2.441406-6.992188 8.4375-4.550781 13.390624 1.742187 3.535157 5.289062 5.582032 8.980468 5.582032 1.480469 0 2.988282-.328125 4.410156-1.027344l59.554688-29.339844c2.894531-1.425781 4.921875-4.160156 5.449219-7.339844.523437-3.183593-.515625-6.421874-2.796875-8.703124l-14.132813-14.132813 24.820313-12.253906c4.953125-2.445313 6.984375-8.441407 4.542968-13.394531zm0 0"/><path d="m315.25 145.585938c1.609375.964843 3.382812 1.425781 5.136719 1.425781 3.394531 0 6.707031-1.730469 8.582031-4.855469l37.027344-61.695312 19.429687 19.480468c2.117188 2.121094 5.070313 3.183594 8.054688 2.894532 2.980469-.292969 5.675781-1.902344 7.339843-4.394532l55.429688-82.878906c3.070312-4.589844 1.839844-10.800781-2.75-13.871094-4.59375-3.066406-10.804688-1.835937-13.875 2.753906l-48.648438 72.738282-19.871093-19.929688c-2.175781-2.183594-5.242188-3.242187-8.296875-2.863281-3.058594.375-5.773438 2.136719-7.359375 4.78125l-43.628907 72.691406c-2.84375 4.738281-1.308593 10.878907 3.429688 13.722657zm0 0"/></g><g transform="matrix(0.15459668636322021 0 0 0.15459668636322021 215.2383270263672 176.22691345214844)" id="L1_4"><path d="M174.432,32.465c-6.8-10-12.8-19.2-18.4-27.6c-0.8-1.2-2-2.4-3.2-3.2c-4.8-3.2-11.2-1.6-14.4,3.2    c-5.2,8.4-11.2,17.2-18.4,27.6c-31.6,46.4-78.8,116.4-78.8,156.4c0,29.2,12,55.6,31.2,74.8c19.2,18.8,45.6,30.8,74.8,30.8    s55.6-12,74.8-31.2c19.2-19.2,31.2-45.6,31.2-74.8C253.232,148.465,206.032,78.865,174.432,32.465z M207.632,248.865    c-15.6,15.6-36.8,24.8-60.4,24.8c-23.6,0-44.8-9.6-60.4-24.8c-15.6-15.6-24.8-36.8-24.8-60.4c0-33.6,45.2-100.4,75.2-144.8    c3.6-5.2,6.8-10.4,10-14.8c3.2,4.4,6.4,9.6,10,14.8c30,44.8,75.2,111.2,75.2,144.8    C232.432,212.065,222.832,233.265,207.632,248.865z"/><path d="M209.232,181.265c-5.6-0.4-10.4,4-10.8,9.6c-0.4,8.8-3.2,17.2-7.6,24.4c-4.4,7.2-10.8,13.6-18.4,17.6    c-4.8,2.8-6.8,9.2-4,14c3.2,5.6,9.6,7.2,14.4,4.4c10.8-6,19.6-14.8,25.6-24.8c6.4-10,10-22,10.4-34.4    C219.232,186.465,214.832,181.665,209.232,181.265z"/></g><g transform="matrix(0.08708535879850388 0 0 0.08708535879850388 264.3332824707031 175.70614624023438)" id="L1_5"><path d="m353.039062 313.789062c101.863282-73.109374 94.277344-226.792968-13.40625-290.035156-.328124-.230468-.683593-.433594-1.058593-.609375-63.96875-36.960937-145.984375-29.503906-202.507813 21.316407-3.082031 2.769531-3.335937 7.511718-.566406 10.589843 2.769531 3.082031 7.511719 3.332031 10.59375.5625 36.839844-33.121093 87.0625-47.039062 135.449219-37.847656-.691407 8.171875-6.382813 17.019531-12.601563 22.933594-12.214844 11.617187-62.796875 1.59375-81.167968 41.761719-2.566407 5.601562-6.105469 15.550781-9.285157 20.535156-1.613281-5.625-2.929687-14.460938-10.019531-20.457032-4.253906-3.597656-8.804688-5.1875-13.527344-4.730468-8.492187.832031-14.382812 8.210937-17.90625 12.617187-7.441406 9.320313-4.128906 17.6875-1.714844 23.800781 2.238282 5.652344 4.167969 10.53125.574219 18.660157-3.445312 7.800781 3.710938 16.316406 6.0625 19.113281 9.640625 11.46875 33.832031 30.484375 48.574219 26.832031 35.980469-8.945312 46.167969 49.695313 70.121094 55.804688 17.9375 4.574219 35.191406 14.949219 33.015625 24.398437-6.703125 29.09375-34.308594 26.25-51.617188 33.921875-9.53125 4.226563-26.792969 16.222657-38.378906 30.898438-9.148437-2.917969-17.9375-6.625-26.285156-11.070313 1.132812-2.640625 2.378906-5.402344 3.757812-8.304687 12.535157-26.3125 11.707031-40.011719-17.945312-64.488281-14.210938-11.730469-9.304688-27.59375-2.683594-38.832032 4.21875-7.160156 2.132813-16.453125-4.75-21.152344-10.695313-7.316406-42.015625-26.066406-56.628906-47.644531 5.382812-20.246093 14.527343-38.878906 27.246093-55.449219 2.523438-3.289062 1.902344-7.996093-1.382812-10.519531-3.289062-2.523437-7.996094-1.902343-10.515625 1.382813-41.910156 54.605468-49.46875 133.144531-9.347656 197.28125 52.867187 84.511718 165.15625 106.65625 246.207031 49.925781.769531-.394531 1.230469-.761719 1.695312-1.195313zm-2.175781-17.160156c-1.28125-11.582031 9.214844-28.957031 18.6875-44.632812 12.417969-20.546875 24.144531-39.953125 14.820313-53.824219-8.839844-13.144531-21.886719-7.839844-37.15625-20.441406-8.949219-7.386719-17.277344-16.738281-12.375-42.320313 1.386718-7.25 8.359375-16.277344 19.628906-25.417968 7.34375-5.957032 10.089844-16.027344 6.828125-25.054688-1.300781-3.601562-1.355469-5.929688-1.003906-6.832031 5.382812-13.816407-17.414063-21.253907-19.390625-35.898438 88.410156 59.96875 92.742187 188.257813 9.960937 254.421875zm-255.605469-145.050781c17.101563 18.929687 40.582032 32.972656 52.046876 40.816406.394531.265625.515624.761719.289062 1.152344-13.351562 22.667969-11.144531 43.816406 6.058594 58.015625 28.457031 23.488281 21.703125 28.539062 10.746094 53.476562-48.734376-32.347656-77.816407-91.347656-69.140626-153.460937zm124.554688 176.519531c9.304688-9.9375 21.339844-18.332031 28.320312-21.425781 14.292969-6.332031 51.230469-5.519531 60.15625-44.273437 4.675782-20.292969-18.691406-35.867188-43.925781-42.300782-13.753906-3.507812-30.570312-67.460937-77.441406-55.828125-.945313.222657-5.582031-.332031-14.261719-5.730469-12.097656-7.527343-20.886718-17.21875-22.488281-20.894531 5.328125-13.183593 1.597656-22.625-.898437-28.9375-2.292969-5.800781-2.339844-6.632812-.515626-8.917969 1.351563-1.691406 5.460938-6.835937 7.644532-7.050781.503906-.058593 1.394531.417969 2.378906 1.253907 6.1875 5.234374 3.03125 23.105468 16.691406 25.703124 14.609375 2.773438 20.421875-18.921874 25.941406-30.996093 14.949219-32.683594 59.691407-19.84375 77.867188-37.132813 9.441406-8.980468 15.402344-19.886718 16.933594-30.292968 10.574218 3.066406 20.691406 7.171874 30.238281 12.242187-4.585937 21.84375 14.363281 34.386719 19.300781 40.851563-1.203125 4.4375-.722656 9.699218 1.433594 15.664062 1.09375 3.03125.222656 6.371094-2.167969 8.308594-9.914062 8.039062-22.28125 20.507812-24.914062 34.246094-6.152344 32.125 5.425781 46.695312 17.558593 56.714843 28.203126 23.277344 52.351563-.175781 19.046876 54.933594-12.492188 20.671875-26.441407 43.765625-18.902344 61.78125-33.792969 21.828125-75.796875 30.863281-117.996094 22.082031zm0 0"/><path d="m118.996094 434.5c1.464844 2.03125 3.757812 3.109375 6.085937 3.109375 6 0 9.703125-6.867187 6.074219-11.890625-9.847656-13.644531-53.46875-36.441406-76.753906-59.40625-9.03125-8.910156-24.859375-39.679688-29.011719-52.648438l-10.246094-36.886718c-1.179687-4.25 5.015625-6.972656 7.179688-2.214844 11.941406 25.460938 12.964843 30.652344 18.953125 38.367188 13.765625 17.738281 31.636718 32.363281 51.730468 42.386718l31.941407 32.117188c1.464843 1.476562 3.390625 2.210937 5.316406 2.210937 6.625 0 10.027344-8.054687 5.320313-12.789062l-32.234376-32.414063-12.707031-19.742187c-2.140625-4.40625 3.550781-8.707031 7.3125-4.820313 43.605469 45.84375 41.519531 44.460938 43.769531 45.554688l46.800782 22.734375c25.546875 12.410156 23.71875 39.46875 24.328125 41.394531.378906 4.125 4.019531 7.152344 8.15625 6.78125 4.128906-.378906 7.164062-4.03125 6.785156-8.15625l-.660156-7.179688c-1.828125-19.863281-14.113281-37.621093-32.054688-46.335937l-45.570312-22.136719-40.714844-43.027344c-6.464844-6.683593-16.753906-8.03125-24.46875-3.203124-6.960937 4.355468-10.25 12.46875-8.773437 20.148437-8.335938-6.664063-15.894532-14.308594-22.429688-22.722656-4.304688-5.546875-4.4375-8.070313-17.144531-35.378907-3.738281-8.226562-12.699219-12.800781-21.308594-10.882812-10.464844 2.335938-16.855469 12.988281-13.984375 23.320312 13.804688 49.6875 9.421875 34.292969 10.363281 37.285157 4.730469 14.910156 21.667969 47.925781 32.816407 58.914062 12.699218 12.527344 30.527343 24.699219 46.253906 35.4375 6.523437 4.453125 25.039062 16.765625 28.875 22.074219zm0 0"/><path d="m491.226562 258c-9.15625-3.074219-19.070312 1.234375-23.0625 10.011719-12.835937 27.597656-12.976562 30.15625-17.296874 35.71875-6.535157 8.417969-14.09375 16.0625-22.429688 22.726562 1.476562-7.679687-1.816406-15.796875-8.773438-20.148437-7.710937-4.828125-18.003906-3.484375-24.523437 3.257812l-40.660156 42.96875-45.566407 22.136719c-34 16.515625-32.058593 51.730469-32.746093 53.828125-.378907 4.128906 2.65625 7.777344 6.78125 8.15625 4.117187.382812 7.777343-2.65625 8.15625-6.78125.605469-1.917969-1.234375-29.277344 24.363281-41.707031 48.976562-23.976563 47.199219-22.457031 48.96875-24.324219l41.542969-43.90625c3.859375-3.988281 9.496093.378906 7.363281 4.761719l-12.703125 19.742187-32.234375 32.414063c-4.710938 4.734375-1.300781 12.789062 5.320312 12.789062 5.695313 0 5.929688-3.890625 37.257813-34.332031 29.15625-14.539062 51.507813-38.5625 57.84375-52.5l12.996094-28.59375c1.871093-4.121094 8.304687-2.046875 6.929687 2.90625l-10.152344 36.535156c-4.152343 12.972656-19.980468 43.742188-29.007812 52.648438-23.226562 22.910156-66.769531 45.671875-76.691406 59.316406-3.632813 4.984375.003906 11.917969 6.058594 11.917969 2.316406 0 4.601562-1.070313 6.070312-3.089844 7.546875-10.363281 51.25-33.941406 75.09375-57.460937 11.144531-10.992188 28.085938-44.007813 32.816406-58.917969.945313-3-2.929687 10.554687 10.265625-36.933594 2.722657-9.804687-2.539062-19.96875-11.980469-23.140625zm0 0"/><path d="m225.496094 451.726562h-91.859375c-9.589844 0-17.390625 7.800782-17.390625 17.390626v25.496093c0 9.585938 7.800781 17.386719 17.390625 17.386719h91.859375c9.585937 0 17.386718-7.800781 17.386718-17.386719v-25.496093c0-9.589844-7.800781-17.390626-17.386718-17.390626zm2.386718 42.886719c0 1.316407-1.070312 2.386719-2.386718 2.386719h-91.859375c-1.316407 0-2.386719-1.070312-2.386719-2.386719v-25.496093c0-1.316407 1.070312-2.386719 2.386719-2.386719h91.859375c1.316406 0 2.386718 1.070312 2.386718 2.386719zm0 0"/><path d="m370.359375 451.726562h-91.863281c-9.585938 0-17.386719 7.800782-17.386719 17.390626v25.496093c0 9.585938 7.800781 17.386719 17.386719 17.386719h91.863281c9.585937 0 17.386719-7.800781 17.386719-17.386719v-25.496093c0-9.589844-7.800782-17.390626-17.386719-17.390626zm2.382813 42.886719c0 1.316407-1.066407 2.386719-2.382813 2.386719h-91.863281c-1.3125 0-2.382813-1.070312-2.382813-2.386719v-25.496093c0-1.316407 1.070313-2.386719 2.382813-2.386719h91.863281c1.316406 0 2.382813 1.070312 2.382813 2.386719zm0 0"/></g><g transform="matrix(0.11018156260251999 0 0 0.11018156260251999 309.1767272949219 172.1730194091797)" id="L1_6"><path d="M216.529,93.2c-61.2,0-111.2,50-111.2,111.2c0,32,14,62.8,37.6,83.6c17.6,17.6,16,55.2,15.6,55.6     c0,2,0.4,3.6,2,5.2c1.2,1.2,3.2,2,4.8,2h102c2,0,3.6-0.8,4.8-2c1.2-1.2,2-3.2,2-5.2c0-0.4-2-38,15.6-55.6     c0.4-0.4,0.8-0.8,1.2-1.2c23.2-21.2,36.8-51.2,36.8-82.4C327.729,143.2,277.729,93.2,216.529,93.2z M280.529,277.6     c-0.4,0.4-1.2,1.2-1.2,1.6c-15.6,16.8-18.4,44.4-18.8,57.6h-88.4c-0.4-13.2-3.2-42-20-59.2c-21.2-18.4-33.6-45.2-33.6-73.6     c0-54,43.6-97.6,97.6-97.6s97.6,43.6,97.6,97.6C313.729,232.4,301.729,259.2,280.529,277.6z" fill="#231f20"/><path d="M216.129,121.6c-3.6,0-6.8,3.2-6.8,6.8c0,3.6,3.2,6.8,6.8,6.8c40.4,0,72.8,32.8,72.8,72.8     c0,3.6,3.2,6.8,6.8,6.8c3.6,0,6.8-3.2,6.8-6.8C302.929,160.4,264.129,121.6,216.129,121.6z" fill="#231f20"/><path d="M260.529,358.4h-88.8c-9.2,0-16.8,7.6-16.8,16.8s7.6,16.8,16.8,16.8h88.4     c9.6-0.4,17.2-7.6,17.2-16.8C277.329,366,269.729,358.4,260.529,358.4z M260.529,378h-88.8c-1.6,0-3.2-1.2-3.2-3.2     s1.2-3.2,3.2-3.2h88.4c1.6,0,3.2,1.2,3.2,3.2S262.129,378,260.529,378z" fill="#231f20"/><path d="M247.329,398.8h-62.4c-9.2,0-16.8,7.6-16.8,16.8s7.6,16.8,16.8,16.8h62.4     c9.2,0,16.8-7.6,16.8-16.8C264.129,406,256.529,398.8,247.329,398.8z M247.329,418.4h-62.4c-1.6,0-3.2-1.2-3.2-3.2     s1.2-3.2,3.2-3.2h62.4c1.6,0,3.2,1.2,3.2,3.2S248.929,418.4,247.329,418.4z" fill="#231f20"/><path d="M216.129,60c4,0,6.8-3.2,6.8-6.8V6.8c0-3.6-3.2-6.8-6.8-6.8c-3.6,0-6.8,3.2-6.8,6.8v46.4     C209.329,56.8,212.529,60,216.129,60z" fill="#231f20"/><path d="M329.329,34.4c-3.2-2.4-7.2-1.2-9.2,1.6l-25.6,38.4c-2.4,3.2-1.6,7.6,1.6,9.6     c1.2,0.8,2.4,1.2,3.6,1.2c2.4,0,4.4-1.2,5.6-3.2l25.6-38.4C333.329,40.8,332.529,36.4,329.329,34.4z" fill="#231f20"/><path d="M134.929,83.6c1.2,0,2.4-0.4,3.6-1.2c3.2-2,4-6.4,2-9.6l-24.8-38.8c-2-3.2-6.4-4-9.6-2     s-4,6.4-2,9.6l24.8,38.8C130.529,82.8,132.529,83.6,134.929,83.6z" fill="#231f20"/><path d="M86.529,126l-40.4-22c-3.2-1.6-7.6-0.4-9.2,2.8c-2,3.2-0.8,7.6,2.8,9.2l40.4,22     c1.2,0.4,2,0.8,3.2,0.8c2.4,0,4.8-1.2,6-3.6C90.929,132,89.729,127.6,86.529,126z" fill="#231f20"/><path d="M395.729,106.8c-1.6-3.2-6-4.4-9.2-2.8l-40.8,22c-3.2,1.6-4.4,6-2.8,9.2c1.2,2.4,3.6,3.6,6,3.6     c1.2,0,2.4-0.4,3.2-0.8l40.8-22C396.129,114.4,397.329,110,395.729,106.8z" fill="#231f20"/></g><g transform="matrix(0.08174710720777512 0 0 0.08174710720777512 25.129291534423828 176.22402954101562)" id="L1_7"><path d="m107.15625 0c-37.46875.0429688-67.832031 30.40625-67.875 67.875v325.101562c-28.816406 23.519532-43.148438 60.460938-37.734375 97.261719 8.230469 58.328125 62.191406 98.9375 120.515625 90.703125 52.707031-7.441406 91.859375-52.601562 91.75-105.828125.097656-31.824219-14.148438-61.992187-38.785156-82.136719v-325.101562c-.039063-37.46875-30.402344-67.8320312-67.871094-67.875zm87.265625 475.113281c.0625 48.191407-38.953125 87.316407-87.148437 87.378907-48.195313.066406-87.320313-38.953126-87.382813-87.148438-.035156-27.507812 12.898437-53.421875 34.90625-69.925781 2.441406-1.832031 3.878906-4.707031 3.878906-7.757813v-29.207031h19.390625v-19.390625h-19.390625v-29.089844h19.390625v-19.390625h-19.390625v-29.089843h19.390625v-19.390626h-19.390625v-29.089843h19.390625v-19.390625h-19.390625v-29.089844h19.390625v-19.390625h-19.390625v-29.089844h19.390625v-19.390625h-19.390625v-38.785156c0-26.777344 21.703125-48.480469 48.480469-48.480469 26.773438 0 48.480469 21.703125 48.480469 48.480469v329.804688c0 3.050781 1.4375 5.925781 3.878906 7.753906 22.019531 16.382812 34.96875 42.234375 34.90625 69.679687zm0 0"/><path d="m116.851562 427.601562v-340.335937h-19.390624v340.335937c-26.234376 5.355469-43.160157 30.960938-37.804688 57.195313s30.960938 43.160156 57.195312 37.804687c26.234376-5.355468 43.160157-30.960937 37.804688-57.195312-3.886719-19.042969-18.765625-33.917969-37.804688-37.804688zm-9.695312 76.597657c-16.066406 0-29.089844-13.023438-29.089844-29.085938 0-16.066406 13.023438-29.089843 29.089844-29.089843s29.089844 13.023437 29.089844 29.089843c0 16.0625-13.023438 29.085938-29.089844 29.085938zm0 0"/></g></defs><g fi:class="KUsePattern"><pattern id="pattern_L1_0" width="350" height="350" patternUnits="userSpaceOnUse"><use xlink:href="#L1_0" x="-350" y="-350"/><use xlink:href="#L1_0" x="0" y="-350"/><use xlink:href="#L1_0" x="350" y="-350"/><use xlink:href="#L1_0" x="-350" y="0"/><use xlink:href="#L1_0" x="0" y="0"/><use xlink:href="#L1_0" x="350" y="0"/><use xlink:href="#L1_0" x="-350" y="350"/><use xlink:href="#L1_0" x="0" y="350"/><use xlink:href="#L1_0" x="350" y="350"/></pattern><rect x="0" y="0" width="100%" height="100%" fill="url(#pattern_L1_0)"/></g><g fi:class="KUsePattern"><pattern id="pattern_L1_3" width="350" height="350" patternUnits="userSpaceOnUse"><use xlink:href="#L1_3" x="-350" y="-350"/><use xlink:href="#L1_3" x="0" y="-350"/><use xlink:href="#L1_3" x="350" y="-350"/><use xlink:href="#L1_3" x="-350" y="0"/><use xlink:href="#L1_3" x="0" y="0"/><use xlink:href="#L1_3" x="350" y="0"/><use xlink:href="#L1_3" x="-350" y="350"/><use xlink:href="#L1_3" x="0" y="350"/><use xlink:href="#L1_3" x="350" y="350"/></pattern><rect x="0" y="0" width="100%" height="100%" fill="url(#pattern_L1_3)"/></g><g fi:class="KUsePattern"><pattern id="pattern_L1_4" width="350" height="350" patternUnits="userSpaceOnUse"><use xlink:href="#L1_4" x="-350" y="-350"/><use xlink:href="#L1_4" x="0" y="-350"/><use xlink:href="#L1_4" x="350" y="-350"/><use xlink:href="#L1_4" x="-350" y="0"/><use xlink:href="#L1_4" x="0" y="0"/><use xlink:href="#L1_4" x="350" y="0"/><use xlink:href="#L1_4" x="-350" y="350"/><use xlink:href="#L1_4" x="0" y="350"/><use xlink:href="#L1_4" x="350" y="350"/></pattern><rect x="0" y="0" width="100%" height="100%" fill="url(#pattern_L1_4)"/></g><g fi:class="KUsePattern"><pattern id="pattern_L1_5" width="350" height="350" patternUnits="userSpaceOnUse"><use xlink:href="#L1_5" x="-350" y="-350"/><use xlink:href="#L1_5" x="0" y="-350"/><use xlink:href="#L1_5" x="350" y="-350"/><use xlink:href="#L1_5" x="-350" y="0"/><use xlink:href="#L1_5" x="0" y="0"/><use xlink:href="#L1_5" x="350" y="0"/><use xlink:href="#L1_5" x="-350" y="350"/><use xlink:href="#L1_5" x="0" y="350"/><use xlink:href="#L1_5" x="350" y="350"/></pattern><rect x="0" y="0" width="100%" height="100%" fill="url(#pattern_L1_5)"/></g><g fi:class="KUsePattern"><pattern id="pattern_L1_6" width="350" height="350" patternUnits="userSpaceOnUse"><use xlink:href="#L1_6" x="-350" y="-350"/><use xlink:href="#L1_6" x="0" y="-350"/><use xlink:href="#L1_6" x="350" y="-350"/><use xlink:href="#L1_6" x="-350" y="0"/><use xlink:href="#L1_6" x="0" y="0"/><use xlink:href="#L1_6" x="350" y="0"/><use xlink:href="#L1_6" x="-350" y="350"/><use xlink:href="#L1_6" x="0" y="350"/><use xlink:href="#L1_6" x="350" y="350"/></pattern><rect x="0" y="0" width="100%" height="100%" fill="url(#pattern_L1_6)"/></g><g fi:class="KUsePattern"><pattern id="pattern_L1_7" width="350" height="350" patternUnits="userSpaceOnUse"><use xlink:href="#L1_7" x="-350" y="-350"/><use xlink:href="#L1_7" x="0" y="-350"/><use xlink:href="#L1_7" x="350" y="-350"/><use xlink:href="#L1_7" x="-350" y="0"/><use xlink:href="#L1_7" x="0" y="0"/><use xlink:href="#L1_7" x="350" y="0"/><use xlink:href="#L1_7" x="-350" y="350"/><use xlink:href="#L1_7" x="0" y="350"/><use xlink:href="#L1_7" x="350" y="350"/></pattern><rect x="0" y="0" width="100%" height="100%" fill="url(#pattern_L1_7)"/></g></svg>